<svg id="Layer_1" data-name="Layer 1" xmlns="http://www.w3.org/2000/svg" viewBox="0 0 720 432"><defs><style>.cls-1{fill:#0074ab;}</style></defs><title>Church_network_Logos</title><path class="cls-1" d="M222.8,298.27a11.33,11.33,0,0,1,7.21-2.86,10.42,10.42,0,0,1,5.77,1.58,9,9,0,0,1,3.57,4.45q1.13,2.87,1.16,9.35h2.62l3.39-16.6h-2.68a6,6,0,0,1-2.59,3.33,16.28,16.28,0,0,0-5.62-3.95,18.51,18.51,0,0,0-7-1.22,22.35,22.35,0,0,0-12.09,3.49,25.27,25.27,0,0,0-9,10.25A31.57,31.57,0,0,0,204,320.67q0,8,4.91,12.8t13.35,4.78A20.07,20.07,0,0,0,234,334.83a21,21,0,0,0,7.48-10.18l-2.5-1.13a19.63,19.63,0,0,1-6,8.44,12.8,12.8,0,0,1-7.91,2.81,11.85,11.85,0,0,1-6-1.53,9.85,9.85,0,0,1-4-4.23,15.49,15.49,0,0,1-1.34-6.94,37.63,37.63,0,0,1,2.73-14.13C218.36,303.39,220.44,300.17,222.8,298.27Z"/><path class="cls-1" d="M276.53,288.64l.1-.1-.05-.13c-.1-.26-.47-.29-.74-.29a12.89,12.89,0,0,0-2.21.32,6.46,6.46,0,0,1-1.71.21,7,7,0,0,1-1.2-.09h-.2c-.9,0-3.07.12-3.6,1.29a1,1,0,0,1-1.26.71h-.09l-.27.24c-.94.83-1.76,1.56-1.6,2.92a1.63,1.63,0,0,1-.75.32,4.36,4.36,0,0,0-.51.17l-.07,0,0,.07a63.71,63.71,0,0,1-4.24,7.42c-.31.49-.63,1-1,1.51l-.24.39.45-.08.17,0h0c.38,1.34-.54,2.36-1.5,3.44s-2.14,2.39-1.61,4.08c-1.95,0-3.62,2.67-4.84,4.59a8.22,8.22,0,0,1-1.31,1.79l-.15.1.07.16a1.85,1.85,0,0,1-.21,1.59,2,2,0,0,0,0,2.31,1.35,1.35,0,0,1-.27.26,1.35,1.35,0,0,0-.42.44l-.06.13.09.11a1.56,1.56,0,0,1,.25.34,2.49,2.49,0,0,0,.34.44,4.48,4.48,0,0,0-.59.64l-.07.1.06.11a3.75,3.75,0,0,1,.35,1.89,4.05,4.05,0,0,0,.46,2.2,1.93,1.93,0,0,0-.7,2,2.16,2.16,0,0,1-.26,1.58h-.5a1.2,1.2,0,0,0-.28,0l-.11,0,0,.11c-1.07,2.89,0,4.13.52,4.79l.17.21a1.08,1.08,0,0,0-.24.39,1.93,1.93,0,0,0,0,1.34c.63,1.32.55,1.91.44,2.14a.39.39,0,0,1-.2.22l-.28.07.14.24a6.58,6.58,0,0,1,.77,2.53,4.62,4.62,0,0,0,.86,2.46l.34.42,0-.55C249.58,325.35,259.41,304.88,276.53,288.64Z"/><path class="cls-1" d="M368.82,246.39l1.28,0a9.27,9.27,0,0,1,7.27.1h0c1.5.07,3,.15,4.46.27.27,0,.53,0,.81-.07l1.66.3a110.56,110.56,0,0,1,28.87,6.87s0,.05,0,.07c1.64.58,3.26,1.2,4.87,1.84q3.65,1.47,7.18,3.16h0a126.8,126.8,0,0,1,24.14,15.06c-.71-2.11-3-3.24-4.23-5.8,0,0-1,.73-2.82-2.44-.36-.64-1.39-1.38-1.92-1.16-.46-.83-.29-3.26-4.87-5.14-.23.18-.41.57-.63.74-2.19-.24-2.56-2.86-4.86-2.31-1-2.33-3.74-1.68-4.85-3.77-.43-.07-6.43-3-6.88-3.25-.65-2.2-4.29-1.2-5.27-.81-.44-.24-.91-.54-1.07-.5a.57.57,0,0,0-.56-.67c-5.39-2.49-11.11-3.17-17-5.44-.41,0-.73.34-1.21.18a25.22,25.22,0,0,0-5.13-1.3,8.52,8.52,0,0,0-2.93-.48c-.55-.1-1.08-.22-1.61-.33a.51.51,0,0,0-.28-.45c-.44-.51-.84-.32-1.24-.12l-.13-.06c-.06-.6.3-1.5-.25-1.71-.65-.76-1.22,0-1.79.09a5.56,5.56,0,0,1-.71,0c-1.08-.27-2.2-.5-3.35-.67l-.29-.1-.6,0-.57-.07a9.3,9.3,0,0,1-1.75-.73.9.9,0,0,1-.66.48c-.63-.06-1.27-.11-1.91-.15h-.18a16.08,16.08,0,0,1-1.82-.65c-.82-.37-2.37-.34-2.73.27-1.06-.48-2.67-3-8.55-1.5-.09.34,0,.86-.07,1.2-2.33,1.35-4.61-.95-6.48,1.27-2.61-1.48-4.5-.46-7-1.5l-.65.13a10.78,10.78,0,0,0-.95.72,2,2,0,0,0-.26-.25,4,4,0,0,1-3.09.32c-.83.26-1,1.65-2.23,1a7.16,7.16,0,0,1-1.51,1.5c-2.1.58-4.18,1.24-6.23,1.93a9.32,9.32,0,0,1-1.81,1.39,5,5,0,0,0-2.42.13c-.08-.06-.48.17-.58.41-.32-.13-2.74,1-2.64,1.68-.93-.36-1.5,1-1.5,1-.81.34-1.61.69-2.39,1a1.35,1.35,0,0,1-.86.4,108.48,108.48,0,0,0-18.58,10.85h0l-.21.13c-1.74,1.28-3.06,2.36-3.95,3.11h0a1.59,1.59,0,0,0,.82.46c-1.2,1.46-2.42,2.86-4.61,2.78,0-.14-.06-.3-.07-.43-1.86,1.63-3.72,3.34-5.69,5.06a78.53,78.53,0,0,1-7.35,3.24,1.2,1.2,0,0,0,1.3.53,2.69,2.69,0,0,1,1.27.1l-1,.73c-.12.59,0,1.38-.42,1.75-2.33.29-2.63,2.88-4,4.32-.42.44-1.33.39-1.75.92a8,8,0,0,0-1.19,2.69c.71-.11,3-2.22,3.6-2.23.14,0,1.78-.59,1.91-.6-.35.62,2.19,0,2.83,0a4,4,0,0,0,4.28-3.43l3.73.32a72,72,0,0,1,8.41-6.78c-.15,0-.31.06-.47.07a.37.37,0,0,1,0-.15l.56-.32.36-.29a5.58,5.58,0,0,1,.59-.1c.54-.4,1.11-.77,1.66-1.15.81-.58,1.64-1.16,2.47-1.72l1.43-1q2.38-1.56,4.84-3a21.14,21.14,0,0,0,2.31-2.61c1-.62,2-1.23,3.05-1.83,1.54-.54,3.08-1.05,4.51-1.46a1.57,1.57,0,0,1,.64.33q5-2.34,10.17-4.25a6.42,6.42,0,0,0,1.38-1.6c1.33.58,1.35-.83,2.15-1.15,1.58.17,2.69,0,3.44-.9,3.78-1.07,7.95-2,11-4.14l.12,0c7.64,2.9,13.2-2.27,21.19-.18h0c.39-.34,1-.23,1.43-.58A3.68,3.68,0,0,1,368.82,246.39Z"/><path class="cls-1" d="M301.8,151c.21,1.2.91,1.11,1.05,2.32.18,1.51-.91,1.61-.79,3.12s.27,1.5.39,3,1.18,1.43,1.28,2.95c.09,1.33-.68,1.37-.62,2.71s-.42,1.35-.35,2.69.3,1.32.37,2.66a17.62,17.62,0,0,1,0,2.62,19,19,0,0,1-.51,2.69c-.2,1.39,1,1.59.85,3a11.11,11.11,0,0,0-.33,2.68,8.79,8.79,0,0,0,.07,2.35c.2,1.21-.23,1.29,0,2.5s0,1.24.25,2.45,1,1.09,1.11,2.32.37,1.33.47,2.65-.65,1.39-.55,2.72-.28,1.36-.18,2.68.64,1.29.75,2.63.47,1.29.57,2.62.21,1.32.32,2.65-.59,1.39-.42,2.72.73,1.12.94,2.32.41,1.17.62,2.39c.13.72-.92.89-.26,1.15.83.33,1.23.6,1.49-.28.44-1.53.11-1.64-.16-3.21a17,17,0,0,1-.35-3.1,17.5,17.5,0,0,1,.14-3.15c.1-1.6-1-1.73-.82-3.32s.48-1.31.49-2.77a12.83,12.83,0,0,0-.48-3.29c-.3-1.69.12-1.77,0-3.49-.06-1.21.26-1.16.42-2.36s-.12-1.23,0-2.43.83-1.14.88-2.34a23.22,23.22,0,0,0,0-2.89c-.07-1.43-.08-1.43-.15-2.85s-.71-1.4-.77-2.82.45-1.5.25-2.91-.81-1.4-.73-2.82a21.93,21.93,0,0,1,.13-3.14c.24-1.52.92-1.41,1-2.95a15.27,15.27,0,0,0,0-2.53c-.07-1.27,0-1.28-.06-2.55s-.42-1.24-.5-2.51c-.11-1.65-.4-1.62-.52-3.26s0-1.66-.07-3.3C307,150,307,150,307,148.73a22.15,22.15,0,0,0,.15-2.57c-.1-1.22.86-1.75.09-2.68-.6-.73-1.07.3-2,.54s-.58.61-1.42,1.22-1.64-.32-2.09.63c-.58,1.2-.3,1.36-.24,2.7A13.52,13.52,0,0,0,301.8,151Z"/><path class="cls-1" d="M250.06,181.39c.7.78.89.61,1.63,1.33,1.14,1.09,1.55.68,2.62,1.84s.5,1.73,1.66,2.8c.85.81,1.12.53,2,1.25s1.19.41,2,1.22.55,1.15,1.34,2.08.62,1.08,1.4,2,1.21.55,2.1,1.38c1.14,1.07.83,1.45,2.07,2.41s1.43.69,2.67,1.65,1.36.79,2.6,1.74c.93.73.95.7,1.89,1.42s1.34.42,2.08,1.33c1.09,1.36,0,2.16,1.08,3.52.74.92,1.18.54,2.12,1.25s1.29.32,2.14,1.14a24.76,24.76,0,0,1,1.86,2.43c1,1.14.78,1.3,1.76,2.45s1.31.86,2.31,2,.81,1.06,1.71,2,1,.9,1.92,1.87.22,2.52,1.52,2.55.75-1.18,1.21-2.27c.19-.45.27-.47,0-.89-.85-1.18-1.15-.9-2.17-1.94s-.56-1.48-1.58-2.53-1.38-.69-2.39-1.74-1-1.07-2-2.12-.72-1.33-1.74-2.38-1.38-.71-2.33-1.81c-1.27-1.47-1.44-1.34-2.66-2.85-.95-1.16-.92-1.18-1.88-2.32s-1-1.11-2-2.26-.38-1.62-1.34-2.77-1.38-.82-2.28-2-.89-1.16-1.68-2.36-.47-1.43-1.42-2.52c-.74-.85-.93-.64-1.8-1.36a17.28,17.28,0,0,1-1.55-1.65c-.94-.91-1.18-.68-2.05-1.66s-.59-1.24-1.54-2.14-1.15-.73-2-1.7-.74-1.27-1.7-2.33-1-1-2-2.09-.75-1.19-2-1.82-1.25-.85-2.52-.42c-.6.2-3.24,3.07-3.29,3.9C247.88,179.39,249.57,180.86,250.06,181.39Z"/><path class="cls-1" d="M274.57,219.15c-.82-.66-1.77-1.33-2.7-2.14s-1.55-1.59-2.45-2.4-2.07-1.37-2.91-2.08-.16-1.6-1-2.26c-1.05-.81-3.59-1.66-4.48-2.24a17.29,17.29,0,0,0-3.13-1.63,12.78,12.78,0,0,0-3-.59,14.67,14.67,0,0,0-3-.33c.83.93,1.84,1.77,2.72,2.64s1.64,1.88,2.58,2.69,2,2,3,2.75,2.6.85,3.65,1.56.77,1.19,1.87,1.82,2.95,1.6,4.09,2.17,1.91.24,3.07.73,2.61,1.85,3.79,2.28,2.28.55,3.47.91a26.2,26.2,0,0,1-2.72-1.9C276.51,220.52,275.56,220,274.57,219.15Z"/><path class="cls-1" d="M376.85,192.14c.62-.41,1.25-.92,2-1.38s1.45-.65,2.2-1.08,1.3-1.15,2-1.57,1.68-.63,2.31-1.08,1.21-.47,1.76-1a11.47,11.47,0,0,0,1.72-2.61,7.68,7.68,0,0,0,.71-2.17c.19-.73-1.12-1.49-1.92-1.1s-1.81.12-2.57.58-1.3,1.57-2,2.09-1.32,1.54-2,2.13-1.07.18-1.68.82-1.56,1.78-2.12,2.48-.34,1.44-.84,2.19-1.75,1.41-2.2,2.2S376.09,192.63,376.85,192.14Z"/><path class="cls-1" d="M325,212.85c-.5.73-.12,1.22.36,1.88a3.14,3.14,0,0,0,2.17,1.55c.65,0,1.35-.48,2.3-.69.51-.71,1.18-1.22,1.64-2s2.43-3.7,2.83-4.49,2-3.91,2.41-4.71.22-1.85.62-2.63,1-1.45,1.46-2.21,2.49-3.6,3-4.32.61-1.74,1.18-2.41a73.27,73.27,0,0,1,6.07-5c.13-.84.91-1.31,1.21-2a10.21,10.21,0,0,1,1-2c.46-.61.49-1.58,1-2.18s1.38-.82,1.9-1.45.6-1.47,1-2.1.82-1.34,1.22-1.94a13.5,13.5,0,0,1,1.56-1.72,28.89,28.89,0,0,1,2.47-1.69c.75-.64,1.05-1.78,1.72-2.5a8.13,8.13,0,0,0,1.6-2.33c.37-.85,1.37-1.81,1.36-2.92a17.71,17.71,0,0,1-1.82-1.65c-.48-.58-11.86,9.81-11.68,10.67-.44.73-.12,1.71-.59,2.42s-1.44,1.07-1.95,1.76-.85,1.48-1.36,2.15-.84,1.51-1.36,2.18-1.59.93-2.1,1.6-.63,1.67-1.12,2.36-1.24,1.23-1.7,1.95-.33,1.77-.74,2.52-1.76,1.14-2.11,1.92a18.38,18.38,0,0,1-.72,2.25c-.45.79-1.63,1.05-2.06,1.78a20.29,20.29,0,0,0-1,3c-.24.57.47,1.58.3,2.39a20.55,20.55,0,0,1-.72,2.05,13.82,13.82,0,0,1-1,2.47,19.16,19.16,0,0,1-1.57,2.84,25.14,25.14,0,0,1-1.88,2.46c-.86-.41-2.26-1.12-3-1A3.74,3.74,0,0,0,325,212.85Z"/><path class="cls-1" d="M226.66,233.48c1.25.26,2.6-.77,3.79-1a43.81,43.81,0,0,1,14.6.41c2.36-1.2,9.06-.52,12.68.61a71.27,71.27,0,0,1,9.43.8c4.37.15,10.8.77,13.84,0-1.47-.27-2.86-.61-4.15-1s-2.67-.83-3.83-1.26c-.57-.22-1.84-1.51-2.35-1.72-1.22-.5-1.56.09-2.46-.34-2.06-1-3.3-1.62-3.63-1.41a17,17,0,0,1-3.19,1c-1.23.27-1.39-.39-3-.26-2.05.19-5.55,1.13-7.11.92-1.94-.25-2.19-1.15-4-1.48-.5-.59-1-1.31-1.56-1.4a16.52,16.52,0,0,1-1.87.88,8.86,8.86,0,0,1-6.45.22c.25-1.44-16,.21-14.93,2.16A8.5,8.5,0,0,0,226.66,233.48Z"/><path class="cls-1" d="M280.88,183.6c.45,1.08.94,2.22,1.47,3.4s-.87,1.42-.34,2.57,2.91,3,3.46,4.13,1,2.26,1.57,3.37.78,2.41,1.35,3.49,1.57,2,2.15,3,1.21,2.2,1.8,3.22,1.4,2.09,2,3a11.65,11.65,0,0,1,.71,1.35,31.3,31.3,0,0,1,1.44,4.89c.11,1.22.73.75,0,2.9s-.11,2.12-.09,2.69-.17.52-.67,1a4.8,4.8,0,0,0-.49,2.13,13.07,13.07,0,0,0-1.2.6,14.62,14.62,0,0,0-2.18,2.81c-.11.18,3.22.89,3.12.92-6.46,1.59-7.2,3.83-8,4.3-1.08.61.41,1,.4,2-.82.66-2.06,1.55-2.6,1.46a3.2,3.2,0,0,0-1.75.18c-.5.14-1.55.48-1.55.48a15.87,15.87,0,0,0-3.24.1,35.76,35.76,0,0,1-5.87.3,34.59,34.59,0,0,0-9-2,3.18,3.18,0,0,1-.43-.15c-1.81-.16-3.62-.25-5.37-.28-3,.36-9.27.06-10.91.14-3.26.16-5.85,1.18-8.25-1.31-2.66.54-6.89.28-8,3.24,2.08,2.35,6,4.2,8.79,3,.68-.3,1.08-1.12,1.87-1.55,1.43-.79,4.42-1.1,7.57-.49,1.28.26,1.88.46,3.08.77s3.31.29,4.25.56c.61.18,1.57,0,4.34,0,1,0,3.29.28,4.31.28,1.31,0,3-.5,4.33-.59l5.72,1.57s5.24.81,5.42,1.36,1.19.89,1.19.89a4.79,4.79,0,0,1,2.09.46,15.21,15.21,0,0,0,2.95,1.26c-.06.28-.13.56-.2.87a18.46,18.46,0,0,1-2.05,1.17c-1.77.84-1.88,1.36-1.88,1.36a26.55,26.55,0,0,1-4.3,2.81,21.36,21.36,0,0,0-3,.66c-.63.15-.53.46-1.17.59-1.32.26-1.4-.12-2.74,0s-1.33.4-2.67.48a15.54,15.54,0,0,0-2.65.11,17.26,17.26,0,0,0-2.79.31c-1.34.39-1.43.1-2.78.48s-1.15,1.06-2.5,1.44-1.38.31-2.74.65c-1.17.3-1.29-.24-2.47,0s-1.08.72-2.25,1-1.2.15-2.38.4-1.21,0-2.41.09a14.2,14.2,0,0,1-2.26.24c-1.65,0-1.78-.61-3.34-.1-1.24.41-1,1-2.15,1.57-1,.5-1.37-.11-1.68.94-.39,1.31-.13,1.25.3,2.55.59,1.81-.24,2.52,1.24,3.72,1.09.88,1.56-.36,2.93-.67s1.35-.38,2.73-.69a14.15,14.15,0,0,0,2.58-1.09c1.34-.5,1.61.08,2.87-.59s.91-1.31,2.18-2,1.33-.53,2.6-1.21a18.65,18.65,0,0,1,2.57-1.28,16.46,16.46,0,0,1,2.55-.91,8.34,8.34,0,0,0,2.74-.2c1.31-.36,1.19-.76,2.49-1.12a8.46,8.46,0,0,1,2.65-.33,3.2,3.2,0,0,1,1.53.3c.11,0,.31-.85.83-1,1.17-.4,1.29-.06,2.49-.39s1.2-.56,2.45-.92,1.24-.39,2.5-.77,1.43.19,2.65-.27c.81-.3.7-.48,1.34-1.08a3.42,3.42,0,0,1,2.91.43c1.71,1,.65.24,2.58.16l1.57-.06c0,.1.05.22.07.34a50.63,50.63,0,0,0,2.25,5,4.5,4.5,0,0,0,.54.87c1.22-1,2.47-2.08,3.73-3.18.39-.11,1.42.87,1.82.55A21.91,21.91,0,0,1,299,253.9c1.7-1.36,3.75-2.88,6.1-4.46-.23-.47-.54-1-.2-1.28.35-.94,1.15-.4,1.71-.54a4.78,4.78,0,0,0,.67-.22c.93-.63,1.9-1.23,2.91-1.79l.25-.2.55-.22c.17-.1.34-.18.51-.26a9.43,9.43,0,0,0,1.4-1.3.88.88,0,0,0,.77.23l1.74-.81.17-.06a13.51,13.51,0,0,0,1.48-1.25c.65-.62,2.11-1.13,2.66-.69.83-.81,7.78-3.55,8-3.26,2.65.46,4-2.49,6.51-1a6.87,6.87,0,0,1,2.09-1.66l.77-1.72c.26-.1.51-.2.75-.27,1-.32,2.07-.27,3-.57s1.85-.87,2.74-1.2,1.79-1,2.67-1.31,1.84-.84,2.71-1.21,2.2-.14,3.07-.53,1.87-.75,2.75-1.17,1.58-1.22,2.48-1.64,1.73-.92,2.64-1.33,1.63-1.11,2.58-1.51,2.07-.14,3-.51,1.74-.84,2.72-1.2,1.64-1.14,2.63-1.47,1.87-.61,2.86-.91,2-.12,3-.4l2.87-.83c.92-.24,1.94-.3,2.94-.56s1.93-.35,2.94-.6,1.79-1,2.79-1.18,2-.22,3-.45a1.85,1.85,0,0,0-.08-2.46,6.6,6.6,0,0,0-2-1.87c-.68-.33-1.69-.49-2.71-.86-.77-.28-1.82-.77-2.82-1.07a10.64,10.64,0,0,1-2.3,2.14c-.76.47-1.52,1.15-2.43,1.64l-2.6,1.43c-.92.48-2,.63-2.81,1.07a13.26,13.26,0,0,0-2.32,2.15c-1-.21-2-1-2.94-.95s-1.75,1-2.64,1.37a13.6,13.6,0,0,0-2.42,1.37c-.77.52-1.44,1.13-2.18,1.73s-1.79.86-2.49,1.47-1.44,1.22-2.17,1.79-1.22,1.55-2,2a11.64,11.64,0,0,1-2.9.65c-1.07.28-2.12.48-3.14.67a11.41,11.41,0,0,0-2.33,1,14.82,14.82,0,0,0-5.62.74c-4.39,1.24-4.15.64-4.93.41a4.55,4.55,0,0,0-1.27-.23l-.18-.25a1.92,1.92,0,0,1,.37-1.05c.19-.29.48-1.49,1.19-1.84s.65-1.07.95-1.72a2.85,2.85,0,0,1,1.11-1.08l2-1.64a2.39,2.39,0,0,0,.44.1c1.18.06,1-.63,1.9-1.43s.51-1.25,1.45-2,1.25-.36,2.29-1,1.11-.54,2.15-1.2,1-.67,2.06-1.32,1-.7,2.05-1.36,1-.64,2.09-1.3.94-.81,1.95-1.52c1.22-.86,1.28-.77,2.48-1.68s1.15-.95,2.38-1.8,1.37-.94,2.78-1.82,1.63-.6,2.89-1.68a1.21,1.21,0,0,0,.51-1.28c-.06-.92-.32-.89-.85-1.65s-.42-1.06-1.27-1.61c-.46-.3-.64-.19-1.16,0a5.85,5.85,0,0,0-1.91.93,20.84,20.84,0,0,0-1.64,1.34c-1.14.93-1,1.07-2.11,2a13.51,13.51,0,0,0-2,2.1c-1,1.18-.8,1.33-1.81,2.47-.68.76-.85.62-1.59,1.32s-.91.51-1.71,1.15c-1.18.93-1.12,1-2.35,1.85s-1.43.6-2.57,1.58c-1.43,1.25-.91,1.84-2.36,3.05-1.12.93-1.57.32-2.78,1.15s-1.47.61-1.84,1.94c0,0,0,.06,0,.1a39.91,39.91,0,0,1-4.78,2.42c-1.17.35-.6.76-2.82.66s-2.09.36-2.65.51-.54,0-1.09-.35l-.09,0a.91.91,0,0,0-.58-.53,11.65,11.65,0,0,1-1.84-1.45c-.45-.64-.76-.63-.94,0-.22,0-.28-1.16-.88-.51-.35.4-.95,0-1.47-.4a3.76,3.76,0,0,0-.6-1.06c-.46-.43-.21-1.46-.21-1.46a1.89,1.89,0,0,0-.92-1.07c-.58-.25-.71-2.89-.74-3.66a4.1,4.1,0,0,0,.34-.23,19.21,19.21,0,0,1-.67-2.85,19.69,19.69,0,0,1-.29-2.54c0-.8.4-1.63.5-2.52s.6-1.57.76-2.43,0-1.69.17-2.54.32-1.63.54-2.47.36-1.64.6-2.48.3-1.66.56-2.49.53-1.58.81-2.4.78-1.56,1-2.37.11-1.76.33-2.56,1.23-1.47,1.43-2.28.39-1.72.55-2.52-.49-1.85-.38-2.66.22-1.71.27-2.53.8-1.74.78-2.55-.9-1.67-1-2.46.17-2.14-.11-2.91a9.87,9.87,0,0,0-2.38,2,10.08,10.08,0,0,0-2,1.92,11.41,11.41,0,0,0-1,2.62,8.89,8.89,0,0,0-.53,2.74,3.35,3.35,0,0,0,1.25,2.44c0,.91-.13,1.93-.21,2.77A24.52,24.52,0,0,1,320,184c-.16.91-.32,1.76-.54,2.56s-.44,1.77-.73,2.53-.46,1.84-.82,2.54c-.48.93-1.56,1.63-2,2.19a8,8,0,0,1,2.07,1.84c.46.76.26,6.79-.15,7.67s-1,1.48-1.23,2.21a18.16,18.16,0,0,0-.6,2.19,1.34,1.34,0,0,0-.07.36,14.49,14.49,0,0,1-1.86,5.47,5.14,5.14,0,0,0-.74,2s-.65.54-.93.81a1.19,1.19,0,0,0-.56,1.05c0,.29-.83.65-1.69.92l-.07,0-.91.28c-1.12.19-2.95.25-3.73.34a.55.55,0,0,0-.17.05c-.71-.62-1-1.46-1.32-1.39a1.93,1.93,0,0,1-1.31-.59c-.26-.25-1.57-.77-1.79-1.54s-1.06-.86-1.72-1.28a2.76,2.76,0,0,1-.95-1.32l-1.35-2.27a14.36,14.36,0,0,0-.71-2.15c-.72-1.71-1.19-1.53-1.9-3.23s-.69-1.72-1.4-3.44-.75-1.7-1.47-3.42,1-1.14-.47-3.21a16.82,16.82,0,0,1-2.25-3.68c-.72-1.72-.63-1.75-1.35-3.46,0,0-.64-1.74-1.36-3.46s-.65-1.73-1.37-3.45-.62-1.75-1.34-3.46.73-2.61-.65-3.58c-1.05-.74-1.84.95-2.71,1.55a9.2,9.2,0,0,0-2.35,2.31c.27.9.93,1.83,1.47,3.22C279.39,182.24,280.35,182.37,280.88,183.6Z"/><path class="cls-1" d="M278.65,373.76c-4.22,0-7.28-3.53-7.28-7.85v-.07c0-4.32,3.06-7.79,7.28-7.79a8.8,8.8,0,0,1,6.19,2.75l2.49-2.87a11.53,11.53,0,0,0-8.65-3.44,11.17,11.17,0,0,0-11.38,11.42V366a11.11,11.11,0,0,0,11.23,11.36,11.41,11.41,0,0,0,9-3.92l-2.5-2.52C283.1,372.66,281.37,373.76,278.65,373.76Z"/><polygon class="cls-1" points="315.44 364.05 304.9 364.05 304.9 354.87 301.02 354.87 301.02 376.95 304.9 376.95 304.9 367.64 315.44 367.64 315.44 376.95 319.32 376.95 319.32 354.87 315.44 354.87 315.44 364.05"/><path class="cls-1" d="M349.13,367.58c0,4.07-2.12,6.15-5.55,6.15s-5.59-2.21-5.59-6.31V354.87h-3.88v12.71c0,6.4,3.66,9.71,9.4,9.71s9.5-3.31,9.5-9.9V354.87h-3.88Z"/><path class="cls-1" d="M385.85,361.9v-.06a6.67,6.67,0,0,0-1.83-4.77,8.93,8.93,0,0,0-6.37-2.2H367.8V377h3.89v-7.7h4.85L382,377h4.57l-6-8.36C383.67,367.7,385.85,365.53,385.85,361.9Zm-14.16,3.91V358.4h5.64c2.87,0,4.58,1.29,4.58,3.66v.06c0,2.24-1.77,3.69-4.55,3.69Z"/><path class="cls-1" d="M410.46,373.76c-4.23,0-7.29-3.53-7.29-7.85v-.07c0-4.32,3.06-7.79,7.29-7.79a8.8,8.8,0,0,1,6.18,2.75l2.49-2.87a11.49,11.49,0,0,0-8.64-3.44,11.17,11.17,0,0,0-11.39,11.42V366a11.11,11.11,0,0,0,11.23,11.36,11.39,11.39,0,0,0,9-3.92l-2.49-2.52C414.9,372.66,413.17,373.76,410.46,373.76Z"/><polygon class="cls-1" points="447.24 364.05 436.7 364.05 436.7 354.87 432.82 354.87 432.82 376.95 436.7 376.95 436.7 367.64 447.24 367.64 447.24 376.95 451.12 376.95 451.12 354.87 447.24 354.87 447.24 364.05"/><path class="cls-1" d="M288.56,306.31a8.76,8.76,0,0,0-5.95-1.84,19.78,19.78,0,0,0-9.77,2.52,18.89,18.89,0,0,0-7.16,6.92,17.67,17.67,0,0,0-2.61,9.18,11.51,11.51,0,0,0,3.13,8.52q3.15,3.13,8.62,3.14a16.47,16.47,0,0,0,7.21-1.61,23,23,0,0,0,6.83-5.44l-2-1.55a21.28,21.28,0,0,1-5.13,4.14,9.56,9.56,0,0,1-4.27,1,5.32,5.32,0,0,1-4.13-1.7,6.94,6.94,0,0,1-1.55-4.85,18.33,18.33,0,0,1,.12-1.87,50.56,50.56,0,0,0,11.57-3.11,13.45,13.45,0,0,0,5.51-4.11,8,8,0,0,0,1.69-4.71A5.93,5.93,0,0,0,288.56,306.31Zm-8.9,10.95q-2.31,2.17-7.4,3.15a24.81,24.81,0,0,1,3.92-10.54q1.9-2.64,4.11-2.64a2.28,2.28,0,0,1,1.83.88,3.64,3.64,0,0,1,.73,2.42A9,9,0,0,1,279.66,317.26Z"/><path class="cls-1" d="M320.08,330.32a.7.7,0,0,1-.58-.24,1.07,1.07,0,0,1-.19-.69,15.22,15.22,0,0,1,.59-2.77l5.92-21.26-7.63.56-1.61,4.32a7.52,7.52,0,0,0-2.43-4,6.94,6.94,0,0,0-4.31-1.25,13.58,13.58,0,0,0-7.61,2.48,18.71,18.71,0,0,0-6.07,6.95,19.66,19.66,0,0,0-2.36,9.34,11.56,11.56,0,0,0,2.64,8,8.64,8.64,0,0,0,6.71,2.93,9.26,9.26,0,0,0,4.49-1.15,15,15,0,0,0,4.38-4,6.3,6.3,0,0,0,1.37,3.85,4.16,4.16,0,0,0,3.28,1.3q6.18,0,11.4-10.15l-2.25-1.21Q322.3,330.32,320.08,330.32ZM313.26,323a15.23,15.23,0,0,1-3.67,6.13,6.11,6.11,0,0,1-3.88,1.83,3.07,3.07,0,0,1-2.64-1.26,7.68,7.68,0,0,1-.91-4.33,23.13,23.13,0,0,1,2.89-11.66q2.9-5.09,6.51-5.09A2.88,2.88,0,0,1,314,309.8a7,7,0,0,1,.88,4.06A26.69,26.69,0,0,1,313.26,323Z"/><path class="cls-1" d="M355.59,305a10.44,10.44,0,0,0-7.67,3.45q-2.4,2.53-5.32,9.64l2.85-12.76-11.64.62-.77,2.56c1.76,0,2.92.18,3.47.6a2.92,2.92,0,0,1,.81,2.41,27.23,27.23,0,0,1-1.22,6.94l-4.19,15.72,7.93-.32,2-7.37a63.15,63.15,0,0,1,4.39-11.39c1.39-2.74,2.61-4.53,3.69-5.35a4.89,4.89,0,0,1,2.81-1.24,1,1,0,0,1,.67.25.79.79,0,0,1,.27.58,2.1,2.1,0,0,1-.09.51,6.62,6.62,0,0,0-.26,1.75,3.08,3.08,0,0,0,1,2.34,3.44,3.44,0,0,0,2.47,1,3.83,3.83,0,0,0,2.93-1.42A5.08,5.08,0,0,0,361,310a4.72,4.72,0,0,0-1.47-3.59A5.53,5.53,0,0,0,355.59,305Z"/><path class="cls-1" d="M414.89,299.18A7.88,7.88,0,0,1,418.7,298l.72-2.77H404.1l-.8,2.77a7,7,0,0,1,3.79.83,2.69,2.69,0,0,1,1,2.27,6.16,6.16,0,0,1-1.07,3.32l-15.48,24.37-3.66-27.19a8.1,8.1,0,0,1-.12-1.24,2.09,2.09,0,0,1,.79-1.75,4.27,4.27,0,0,1,2.6-.61h1.58l.71-2.77h-19l-.77,2.77h1.64a3.15,3.15,0,0,1,3.48,3l5.36,39.15h4l23.8-37.78A10.42,10.42,0,0,1,414.89,299.18Z"/><path class="cls-1" d="M424.59,291.26a4.9,4.9,0,1,0,3.46-1.43A4.71,4.71,0,0,0,424.59,291.26Z"/><path class="cls-1" d="M431.3,323.47a24.65,24.65,0,0,1-4.16,6,3.5,3.5,0,0,1-2.1,1.28.69.69,0,0,1-.58-.27,1.31,1.31,0,0,1-.21-.8,8.6,8.6,0,0,1,.42-2.11l6-22.16-13.34.56-.83,2.71h1.91a4.27,4.27,0,0,1,2.35.48,1.54,1.54,0,0,1,.68,1.31,2.51,2.51,0,0,1-.15.86l-4.11,15.41a11.43,11.43,0,0,0-.39,3,5.08,5.08,0,0,0,1.28,3.66,4.61,4.61,0,0,0,3.49,1.34q6.51,0,11.94-10Z"/><path class="cls-1" d="M465.24,306.31a8.76,8.76,0,0,0-5.95-1.84,19.78,19.78,0,0,0-9.77,2.52,18.89,18.89,0,0,0-7.16,6.92,17.67,17.67,0,0,0-2.61,9.18,11.48,11.48,0,0,0,3.14,8.52q3.14,3.13,8.61,3.14a16.47,16.47,0,0,0,7.21-1.61,23,23,0,0,0,6.83-5.44l-2-1.55a21.49,21.49,0,0,1-5.14,4.14,9.56,9.56,0,0,1-4.27,1,5.32,5.32,0,0,1-4.13-1.7,6.94,6.94,0,0,1-1.55-4.85,18.33,18.33,0,0,1,.12-1.87,50.56,50.56,0,0,0,11.57-3.11,13.52,13.52,0,0,0,5.51-4.11,8,8,0,0,0,1.69-4.71A5.93,5.93,0,0,0,465.24,306.31Zm-8.9,10.95q-2.31,2.17-7.4,3.15a24.68,24.68,0,0,1,3.93-10.54q1.89-2.64,4.1-2.64a2.28,2.28,0,0,1,1.83.88,3.64,3.64,0,0,1,.73,2.42A9,9,0,0,1,456.34,317.26Z"/><path class="cls-1" d="M514.74,306.59a3.71,3.71,0,0,0-3-1.56,3.36,3.36,0,0,0-2.46.94,3.16,3.16,0,0,0-.55,3.88,7.45,7.45,0,0,0,1.71,1.78,5.7,5.7,0,0,1,1.49,1.58,4.57,4.57,0,0,1,.42,2,18.62,18.62,0,0,1-2,7.65,20,20,0,0,1-4.66,6.72,5.39,5.39,0,0,1-3.56,1.61,2.7,2.7,0,0,1-2.21-1.06,4.93,4.93,0,0,1-.85-3.16,28.44,28.44,0,0,1,1.28-7.45L504.12,306h-7.79q-3.54,11.88-4.64,14.46a23.75,23.75,0,0,1-5.64,8.45,6.85,6.85,0,0,1-4.4,2.14,2,2,0,0,1-1.57-.65,2.67,2.67,0,0,1-.59-1.85,21.9,21.9,0,0,1,1.3-5.49l5.86-17.62-13.87.56-.8,2.77a10.09,10.09,0,0,1,4,.48,1.49,1.49,0,0,1,.88,1.39,3.4,3.4,0,0,1-.18,1l-4.34,13.12a13.21,13.21,0,0,0-.7,4.2,5.43,5.43,0,0,0,1.79,4.15,6.87,6.87,0,0,0,4.83,1.65q7.88,0,13.55-8.6l-.08,1.58a6.83,6.83,0,0,0,1.92,5.14,7.57,7.57,0,0,0,5.51,1.88,12.08,12.08,0,0,0,8.27-3.32q3.69-3.31,6.29-9.95A29.6,29.6,0,0,0,516,310.89,6.85,6.85,0,0,0,514.74,306.59Z"/></svg>