<?xml version="1.0" encoding="utf-8"?>
<!-- Generator: Adobe Illustrator 22.0.1, SVG Export Plug-In . SVG Version: 6.00 Build 0)  -->
<svg version="1.1" id="Layer_1" xmlns="http://www.w3.org/2000/svg" xmlns:xlink="http://www.w3.org/1999/xlink" x="0px" y="0px"
	 viewBox="0 0 258.3 59.8" style="enable-background:new 0 0 258.3 59.8;" xml:space="preserve">
<style type="text/css">
	.st0{fill:#F4F2ED;}
	.st1{fill:#172732;}
	.st2{fill:#1E6274;}
	.st3{fill:#3A414B;}
	.st4{fill:#5E606A;}
	.st5{fill:#888890;}
	.st6{fill:#BAB9BE;}
	.st7{fill:#4F7688;}
	.st8{fill:#758F9E;}
	.st9{fill:#9CACB7;}
	.st10{fill:#C7CFD5;}
	.st11{fill:#F6F4F0;}
	.st12{fill:#F8F6F3;}
	.st13{fill:#FAF8F6;}
	.st14{fill:#FCFBFA;}
	.st15{fill:#D0C5B3;}
	.st16{fill:#DAD1C3;}
	.st17{fill:#E5DED4;}
	.st18{fill:#F0ECE7;}
	.st19{fill:#C6B9A3;}
	.st20{fill:#FFFFFF;}
	.st21{clip-path:url(#SVGID_2_);}
	.st22{clip-path:url(#SVGID_4_);}
	.st23{fill:#ECEDEE;}
	.st24{opacity:0.23;fill:url(#SVGID_7_);}
	.st25{clip-path:url(#SVGID_9_);}
	.st26{fill:#414042;}
	.st27{fill:url(#SVGID_10_);}
	.st28{fill:url(#SVGID_11_);}
	.st29{fill:#58595B;}
	.st30{fill:url(#SVGID_12_);}
	.st31{fill:url(#SVGID_13_);}
	.st32{fill:url(#SVGID_14_);}
	.st33{opacity:0.28;fill:url(#SVGID_17_);}
	.st34{clip-path:url(#SVGID_19_);}
	.st35{fill:url(#SVGID_20_);}
	.st36{fill:url(#SVGID_21_);}
	.st37{fill:url(#SVGID_22_);}
	.st38{fill:#184E5B;}
	.st39{fill:url(#SVGID_23_);}
	.st40{fill:url(#SVGID_24_);}
	.st41{fill:url(#SVGID_25_);}
	.st42{fill:#10393F;}
	.st43{clip-path:url(#SVGID_29_);fill:url(#SVGID_30_);}
	.st44{opacity:0.66;clip-path:url(#SVGID_29_);}
	.st45{fill:none;stroke:#FFFFFF;stroke-width:0.2351;}
	.st46{clip-path:url(#SVGID_36_);fill:url(#SVGID_37_);}
	.st47{opacity:0.41;clip-path:url(#SVGID_36_);}
	.st48{clip-path:url(#SVGID_36_);fill:#1E6274;}
	.st49{fill:none;stroke:#172732;stroke-width:0.3796;stroke-linecap:round;stroke-miterlimit:10;}
	.st50{clip-path:url(#SVGID_43_);fill:url(#SVGID_44_);}
	.st51{opacity:7.000000e-02;clip-path:url(#SVGID_43_);}
	.st52{clip-path:url(#SVGID_43_);fill:#1E6274;}
	.st53{fill:none;stroke:#F4F2ED;stroke-width:0.3796;stroke-linecap:round;stroke-miterlimit:10;}
	.st54{clip-path:url(#SVGID_50_);fill:url(#SVGID_51_);}
	.st55{opacity:7.000000e-02;clip-path:url(#SVGID_50_);}
</style>
<g>
	<g>
		<path class="st1" d="M22.5,36.2c-0.4-3.4-1.1-5.2-2.8-6.7c-1.5-1.4-3.6-2-5.8-2l-4.2,0l0,7.6c6.7,0.9,12.9,3.5,13.2,3.6
			C22.7,37.9,22.6,36.8,22.5,36.2z"/>
		<path class="st2" d="M39.8,44.5c-4.4,0-8.6-0.8-13-2.7c-11.6-5-18.4-6.5-26.8-4.8l0,18.7c0,2.2,1.8,4,4,4l51.7,0c2.2,0,4-1.8,4-4
			l0-19.8C56.6,40.4,49.4,44.5,39.8,44.5z"/>
		<path class="st1" d="M55.8,0L25.9,0c4.5,2,7.6,6.4,7.6,11.6c0.1,5-2.8,9.3-6.9,11.5c3.9,1.9,5.6,5.5,6.4,10.8
			c1,6.5,6,9.7,11.6,8.8c9-1.4,13.4-6.8,15.2-9.1l0-29.5C59.8,1.8,58,0,55.8,0z"/>
		<path class="st1" d="M17.6,6.5c-1.2,0-8.1,0.1-8.1,0.1l0.1,10.3c0,0,6.9-0.1,8.1-0.1c3.4,0,5.1-2.1,5.1-5.2
			C22.7,8.5,21,6.5,17.6,6.5z"/>
	</g>
	<g>
		<g>
			<g>
				<path class="st1" d="M83.5,21.7l5.9,8.3c0.3,0.4,0,0.6-0.4,0.6h-1.5c-0.4,0-0.6-0.2-0.8-0.5L81,22h-5.6v8.1
					c0,0.4-0.1,0.5-0.5,0.5h-1.5c-0.4,0-0.5-0.1-0.5-0.5V9.2c0-0.4,0.1-0.5,0.5-0.5h7.4c3.6,0,7.6,1.5,7.6,6.6
					C88.4,19,86.4,20.9,83.5,21.7z M80.7,19.9c3.7,0,5.3-1.8,5.3-4.6c0-3.1-2.1-4.4-5.3-4.4h-5.3v9.1H80.7z"/>
				<path class="st1" d="M103.3,8.3c6.2,0,11.2,5.1,11.2,11.3s-5,11.3-11.2,11.3s-11.2-5.1-11.2-11.3S97.2,8.3,103.3,8.3z
					 M103.3,28.8c4.9,0,8.7-4.5,8.7-9.2c0-4.7-3.8-9.2-8.7-9.2c-4.9,0-8.7,4.4-8.7,9.2C94.7,24.3,98.5,28.8,103.3,28.8z"/>
				<path class="st1" d="M135.4,26c0.3-0.3,0.5-0.2,0.7,0l0.9,1c0.3,0.3,0.3,0.5,0,0.8c-2,2-5.2,3.2-8.2,3.2
					c-6.2,0-11.2-5.1-11.2-11.3s5-11.3,11.2-11.3c3,0,6.2,1.2,8.2,3.2c0.3,0.3,0.2,0.4,0,0.7l-0.9,1c-0.3,0.3-0.5,0.3-0.7,0
					c-1.4-1.5-3.6-2.8-6.5-2.8c-4.9,0-8.7,4.4-8.7,9.2s3.8,9.2,8.7,9.2C131.7,28.8,134,27.5,135.4,26z"/>
				<path class="st1" d="M157.9,30.1c0.3,0.4,0.1,0.5-0.2,0.5h-2.1c-0.3,0-0.5-0.1-0.8-0.5l-10.6-10v10c0,0.4-0.1,0.5-0.5,0.5h-1.5
					c-0.4,0-0.5-0.1-0.5-0.5V9.2c0-0.4,0.1-0.5,0.5-0.5h1.5c0.4,0,0.5,0.1,0.5,0.5v9.1l10-9.1c0.4-0.4,0.5-0.5,0.9-0.5h2
					c0.3,0,0.5,0.2,0.2,0.5l-11,9.9L157.9,30.1z"/>
				<path class="st1" d="M180.5,21.7l5.9,8.3c0.3,0.4,0,0.6-0.4,0.6h-1.5c-0.4,0-0.6-0.2-0.8-0.5L178,22h-5.6v8.1
					c0,0.4-0.1,0.5-0.5,0.5h-1.5c-0.4,0-0.5-0.1-0.5-0.5V9.2c0-0.4,0.1-0.5,0.5-0.5h7.4c3.6,0,7.6,1.5,7.6,6.6
					C185.4,19,183.4,20.9,180.5,21.7z M177.7,19.9c3.7,0,5.3-1.8,5.3-4.6c0-3.1-2.1-4.4-5.3-4.4h-5.3v9.1H177.7z"/>
				<path class="st1" d="M190.9,9.2c0-0.4,0.1-0.5,0.5-0.5h1.5c0.4,0,0.5,0.1,0.5,0.5v20.9c0,0.4-0.1,0.5-0.5,0.5h-1.5
					c-0.4,0-0.5-0.1-0.5-0.5V9.2z"/>
				<path class="st1" d="M197.1,9.2c-0.1-0.3,0-0.5,0.3-0.5h1.8c0.3,0,0.5,0.1,0.7,0.5l7.9,17.2h0l7.9-17.2c0.2-0.4,0.3-0.5,0.6-0.5
					h1.8c0.3,0,0.4,0.3,0.3,0.5l-10.2,21.5c-0.2,0.3-0.2,0.4-0.4,0.4h-0.1c-0.2,0-0.2-0.1-0.4-0.4L197.1,9.2z"/>
				<path class="st1" d="M222.3,30.6c-0.4,0-0.5-0.1-0.5-0.5V9.2c0-0.4,0.1-0.5,0.5-0.5h13.9c0.3,0,0.5,0.1,0.5,0.5v1.2
					c0,0.4-0.1,0.5-0.5,0.5h-11.9v7.6h11.4c0.4,0,0.5,0.1,0.5,0.5v1.2c0,0.4-0.1,0.5-0.5,0.5h-11.4v7.8h11.9c0.4,0,0.5,0.1,0.5,0.5
					v1.2c0,0.4-0.1,0.5-0.5,0.5H222.3z"/>
				<path class="st1" d="M252.4,21.7l5.9,8.3c0.3,0.4,0,0.6-0.4,0.6h-1.5c-0.4,0-0.6-0.2-0.8-0.5l-5.8-8.1h-5.6v8.1
					c0,0.4-0.1,0.5-0.5,0.5h-1.5c-0.4,0-0.5-0.1-0.5-0.5V9.2c0-0.4,0.1-0.5,0.5-0.5h7.4c3.6,0,7.6,1.5,7.6,6.6
					C257.3,19,255.3,20.9,252.4,21.7z M249.5,19.9c3.7,0,5.3-1.8,5.3-4.6c0-3.1-2.1-4.4-5.3-4.4h-5.3v9.1H249.5z"/>
			</g>
		</g>
		<g>
			<g>
				<path class="st1" d="M84,48.5c0.2-0.2,0.3-0.1,0.5,0l0.6,0.7c0.2,0.2,0.2,0.3,0,0.5c-1.4,1.4-3.5,2.2-5.6,2.2
					c-4.2,0-7.6-3.5-7.6-7.7c0-4.2,3.4-7.7,7.6-7.7c2.1,0,4.2,0.8,5.6,2.2c0.2,0.2,0.1,0.3,0,0.5l-0.6,0.7c-0.2,0.2-0.3,0.2-0.5,0
					c-0.9-1-2.5-1.9-4.4-1.9c-3.3,0-5.9,3-5.9,6.2s2.6,6.2,5.9,6.2C81.5,50.4,83,49.6,84,48.5z"/>
				<path class="st1" d="M100.5,37.1c0-0.3,0.1-0.3,0.3-0.3h1c0.3,0,0.3,0.1,0.3,0.3v14.2c0,0.3-0.1,0.3-0.3,0.3h-1
					c-0.3,0-0.3-0.1-0.3-0.3v-6.4h-8.4v6.4c0,0.3-0.1,0.3-0.3,0.3h-1c-0.3,0-0.3-0.1-0.3-0.3V37.1c0-0.3,0.1-0.3,0.3-0.3h1
					c0.3,0,0.3,0.1,0.3,0.3v6.3h8.4V37.1z"/>
				<path class="st1" d="M108,45.5v-8.4c0-0.3,0.1-0.3,0.3-0.3h1c0.3,0,0.3,0.1,0.3,0.3v8.3c0,3.5,1.8,5,4.3,5c2.6,0,4.3-1.5,4.3-5
					v-8.3c0-0.3,0.1-0.3,0.3-0.3h1c0.3,0,0.3,0.1,0.3,0.3v8.4c0,4.2-2.6,6.4-6,6.4C110.6,51.9,108,49.8,108,45.5z"/>
				<path class="st1" d="M133.1,45.6l4,5.6c0.2,0.3,0,0.4-0.3,0.4h-1c-0.3,0-0.4-0.1-0.6-0.3l-3.9-5.5h-3.8v5.5
					c0,0.3-0.1,0.3-0.3,0.3h-1c-0.3,0-0.3,0-0.3-0.3V37.1c0-0.3,0.1-0.3,0.3-0.3h5.1c2.4,0,5.2,1,5.2,4.5
					C136.5,43.8,135.1,45.1,133.1,45.6z M131.2,44.4c2.5,0,3.6-1.2,3.6-3.1c0-2.1-1.4-3-3.6-3h-3.6v6.2H131.2z"/>
				<path class="st1" d="M153.3,48.5c0.2-0.2,0.3-0.1,0.5,0l0.6,0.7c0.2,0.2,0.2,0.3,0,0.5c-1.4,1.4-3.5,2.2-5.6,2.2
					c-4.2,0-7.6-3.5-7.6-7.7c0-4.2,3.4-7.7,7.6-7.7c2.1,0,4.2,0.8,5.6,2.2c0.2,0.2,0.1,0.3,0,0.5l-0.6,0.7c-0.2,0.2-0.3,0.2-0.5,0
					c-0.9-1-2.5-1.9-4.4-1.9c-3.3,0-5.9,3-5.9,6.2s2.6,6.2,5.9,6.2C150.8,50.4,152.3,49.6,153.3,48.5z"/>
				<path class="st1" d="M169.7,37.1c0-0.3,0.1-0.3,0.3-0.3h1c0.3,0,0.3,0.1,0.3,0.3v14.2c0,0.3-0.1,0.3-0.3,0.3h-1
					c-0.3,0-0.3-0.1-0.3-0.3v-6.4h-8.4v6.4c0,0.3-0.1,0.3-0.3,0.3h-1c-0.3,0-0.3-0.1-0.3-0.3V37.1c0-0.3,0.1-0.3,0.3-0.3h1
					c0.3,0,0.3,0.1,0.3,0.3v6.3h8.4V37.1z"/>
			</g>
		</g>
	</g>
</g>
</svg>
