<svg id="Layer_1" data-name="Layer 1" xmlns="http://www.w3.org/2000/svg" viewBox="0 0 720 432"><defs><style>.cls-1,.cls-4{fill:#3a96db;}.cls-2,.cls-6{fill:#64b145;}.cls-3{fill:#a4a9a8;}.cls-4,.cls-5,.cls-6{fill-rule:evenodd;}.cls-5{fill:#fff;}</style></defs><title>Church_network_Logos</title><path class="cls-1" d="M340.49,310.65c5.7,0,8.63,3.41,8.63,9.37v1.18h-5.54v-1.55c0-2.66-1.06-3.68-2.93-3.68s-2.93,1-2.93,3.68,1.18,4.74,5,8.1c4.9,4.31,6.45,7.4,6.45,11.66,0,6-3,9.38-8.74,9.38s-8.74-3.41-8.74-9.38v-2.29h5.54v2.67c0,2.66,1.18,3.62,3,3.62s3-1,3-3.62-1.17-4.74-5-8.1c-4.9-4.31-6.45-7.41-6.45-11.67,0-6,2.93-9.37,8.63-9.37"/><path class="cls-1" d="M369.9,320.29v4.85c0,6-2.88,9.21-8.74,9.21h-2.77v14h-5.86V311.07h8.63c5.86,0,8.74,3.25,8.74,9.22m-11.51-3.89V329h2.77c1.87,0,2.88-.86,2.88-3.52v-5.59c0-2.67-1-3.52-2.88-3.52Z"/><path class="cls-1" d="M384.87,348.36c-.32-.95-.53-1.54-.53-4.58v-5.86c0-3.46-1.18-4.74-3.84-4.74h-2v15.18h-5.86V311.07h8.84c6.07,0,8.68,2.83,8.68,8.58v2.93c0,3.84-1.22,6.29-3.83,7.51v.11c2.93,1.22,3.89,4,3.89,7.88v5.76a10.87,10.87,0,0,0,.64,4.52Zm-6.39-32v11.45h2.29c2.18,0,3.51-1,3.51-3.94v-3.67c0-2.67-.9-3.84-3-3.84Z"/><rect class="cls-1" x="394.03" y="311.07" width="5.86" height="37.29"/><polygon class="cls-1" points="409.48 321.36 409.37 321.36 409.37 348.37 404.1 348.37 404.1 311.07 411.45 311.07 417.37 333.39 417.47 333.39 417.47 311.07 422.69 311.07 422.69 348.37 416.67 348.37 409.48 321.36"/><path class="cls-1" d="M435.69,327.59h8.2v11.82c0,6-3,9.38-8.73,9.38s-8.74-3.41-8.74-9.38V320c0-6,3-9.37,8.74-9.37s8.73,3.41,8.73,9.37v3.63h-5.54v-4c0-2.66-1.17-3.68-3-3.68s-3,1-3,3.68v20.14c0,2.66,1.17,3.62,3,3.62s3-1,3-3.62v-6.87h-2.66Z"/><path class="cls-1" d="M455.56,310.65c5.7,0,8.63,3.41,8.63,9.37v1.18h-5.54v-1.55c0-2.66-1.06-3.68-2.93-3.68s-2.93,1-2.93,3.68,1.17,4.74,5,8.1c4.9,4.31,6.44,7.4,6.44,11.66,0,6-3,9.38-8.73,9.38s-8.74-3.41-8.74-9.38v-2.29h5.54v2.67c0,2.66,1.17,3.62,3,3.62s3-1,3-3.62-1.17-4.74-5-8.1c-4.9-4.31-6.45-7.41-6.45-11.67,0-6,2.93-9.37,8.63-9.37"/><polygon class="cls-2" points="266.09 341.49 266.2 341.49 270.62 311.07 276 311.07 270.25 348.36 261.51 348.36 255.76 311.07 261.67 311.07 266.09 341.49"/><rect class="cls-2" x="278.72" y="311.07" width="5.86" height="37.29"/><path class="cls-2" d="M288.84,311.07h9.27c5.86,0,8.73,3.25,8.73,9.22v18.86c0,6-2.87,9.21-8.73,9.21h-9.27Zm5.86,5.33V343H298c1.86,0,3-1,3-3.63V320c0-2.66-1.12-3.62-3-3.62Z"/><path class="cls-2" d="M329.48,348.36h-5.91l-1-6.76h-7.19l-1,6.76H309l6-37.29h8.58Zm-13.37-11.82h5.65L319,317.68h-.11Z"/><path class="cls-3" d="M327.25,366.12a5.32,5.32,0,0,0-1.67-2.75,4.53,4.53,0,0,0-3-1,4.69,4.69,0,0,0-2.4.58,4.81,4.81,0,0,0-1.64,1.53,6.78,6.78,0,0,0-.94,2.16,9.9,9.9,0,0,0-.31,2.41,10.36,10.36,0,0,0,.29,2.43,6.6,6.6,0,0,0,.93,2.13,4.72,4.72,0,0,0,1.64,1.5,4.85,4.85,0,0,0,2.43.57,4.66,4.66,0,0,0,3.27-1.13,5.2,5.2,0,0,0,1.56-3.1h1.94a9.3,9.3,0,0,1-.77,2.39,6.19,6.19,0,0,1-1.37,1.85,5.7,5.7,0,0,1-2,1.2,8.46,8.46,0,0,1-5.89-.21,6.22,6.22,0,0,1-2.25-1.75,7.21,7.21,0,0,1-1.3-2.63,11.71,11.71,0,0,1-.43-3.25,10.56,10.56,0,0,1,.47-3.14,8.51,8.51,0,0,1,1.38-2.66,6.8,6.8,0,0,1,2.27-1.84,6.88,6.88,0,0,1,3.11-.68,7,7,0,0,1,4.42,1.31,6,6,0,0,1,2.11,4.07Z"/><path class="cls-3" d="M333,376.9V355h1.82v8.32a11.68,11.68,0,0,1,2.26-1.88,5.18,5.18,0,0,1,2.81-.73,7.26,7.26,0,0,1,2.71.5,4.61,4.61,0,0,1,2.09,1.75,3.88,3.88,0,0,1,.69,1.74,16.24,16.24,0,0,1,.1,1.87v10.3h-1.82V366.63a4.69,4.69,0,0,0-.94-3.19,4,4,0,0,0-3.13-1.06,4.5,4.5,0,0,0-1.55.26,5.09,5.09,0,0,0-1.26.68,5.18,5.18,0,0,0-1,1,4.57,4.57,0,0,0-.6,1.16,5.49,5.49,0,0,0-.34,1.46c0,.46-.06,1-.06,1.52v8.47Z"/><path class="cls-3" d="M360.54,361.17h1.82V376.9h-1.82v-2.19c-.24.29-.52.58-.82.88a5.53,5.53,0,0,1-1.05.84,5.77,5.77,0,0,1-3.2.9,6.82,6.82,0,0,1-2.65-.45,4.26,4.26,0,0,1-1.71-1.23,4.69,4.69,0,0,1-.94-1.83,8.37,8.37,0,0,1-.29-2.3V361.17h1.82v10.32a4.6,4.6,0,0,0,.94,3.12,3.92,3.92,0,0,0,3.1,1.08,4.44,4.44,0,0,0,2-.45,4.07,4.07,0,0,0,1.5-1.23,5.83,5.83,0,0,0,.95-1.88,8.29,8.29,0,0,0,.33-2.4Z"/><path class="cls-3" d="M368.68,376.9h-1.82V361.17h1.82v2.94h.06a5.35,5.35,0,0,1,2-2.63,6,6,0,0,1,3.17-.74v2a5.38,5.38,0,0,0-2.55.49,4.24,4.24,0,0,0-1.59,1.4,5.43,5.43,0,0,0-.82,2.08,13.54,13.54,0,0,0-.23,2.51Z"/><path class="cls-3" d="M387.48,366.12a5.25,5.25,0,0,0-1.67-2.75,4.53,4.53,0,0,0-3-1,4.63,4.63,0,0,0-2.39.58,4.72,4.72,0,0,0-1.64,1.53,7,7,0,0,0-.95,2.16,9.88,9.88,0,0,0-.3,2.41,10.36,10.36,0,0,0,.29,2.43,6.39,6.39,0,0,0,.93,2.13,4.63,4.63,0,0,0,1.64,1.5,4.79,4.79,0,0,0,2.42.57,4.66,4.66,0,0,0,3.27-1.13,5.27,5.27,0,0,0,1.57-3.1h1.94a8.94,8.94,0,0,1-.78,2.39,6.34,6.34,0,0,1-1.36,1.85,5.79,5.79,0,0,1-2,1.2,8.46,8.46,0,0,1-5.89-.21,6.06,6.06,0,0,1-2.25-1.75,7.22,7.22,0,0,1-1.31-2.63,12.1,12.1,0,0,1-.42-3.25,10.25,10.25,0,0,1,.47-3.14,8.11,8.11,0,0,1,1.38-2.66,6.76,6.76,0,0,1,2.26-1.84,6.88,6.88,0,0,1,3.11-.68,7.05,7.05,0,0,1,4.43,1.31,6.09,6.09,0,0,1,2.11,4.07Z"/><path class="cls-3" d="M393.22,376.9V355h1.83v8.32a11.68,11.68,0,0,1,2.26-1.88,5.18,5.18,0,0,1,2.81-.73,7.24,7.24,0,0,1,2.7.5,4.69,4.69,0,0,1,2.1,1.75,4,4,0,0,1,.68,1.74,16.2,16.2,0,0,1,.11,1.87v10.3h-1.82V366.63a4.69,4.69,0,0,0-.95-3.19,4,4,0,0,0-3.12-1.06,4.46,4.46,0,0,0-1.55.26,4.76,4.76,0,0,0-1.26.68,4.53,4.53,0,0,0-1.57,2.13,5.86,5.86,0,0,0-.33,1.46c0,.46-.06,1-.06,1.52v8.47Z"/><path class="cls-4" d="M435.16,230.63c-29.43-3.1-40.18,19.48-62.27,18.16-19.88-1.19-28.95-19.86-47.67-23.65-14.26-2.88-26.5,6.11-37.21,7,8,33.24,37.22,55.86,72.91,55.86,36.74,0,67.37-19.15,74.24-53.88Z"/><path class="cls-5" d="M295.39,239.37c42.64-5,21.07,27.24,61.62,37.8-44-8.84-24.34-35.07-61.62-37.8"/><path class="cls-6" d="M437.32,212.91c.05,2.25,0,4.51-.14,6.8q-.19,3.12-.65,6.17c-32.75-12.26-45.19,18.76-61.94,17.86a22.18,22.18,0,0,1-6.76-1.49c25.55-2.76,33.57-40.41,69.49-29.34"/><path class="cls-2" d="M361.81,210.43c.3-2.35,1.68-4.71,2.69-7.27,4.16-.87,10.43-2.82,11-3,10-3.67,18.15-10.82,22.09-20.89,3-7.6,2.79-15.34,3.6-23.3.84-8.16,4.88-13.64,10.63-18.88-8.66,1.2-17.22,3.18-25.16,6.92-11.92,5.62-23.62,15.39-27.12,28.58-2.32,8.7-1.52,19.39.67,28.33C375.35,163.8,398.5,145,398.5,145c-17.81,17.65-28.84,38.8-35.33,55.08-.5,1.15-1,2.33-1.48,3.52-1.36,3.36-1.83,7.26-3.86,10.53a23.5,23.5,0,0,1-2.92,3.07c-.48.52-.94,1.05-1.4,1.59q-1.39-4.74-3-9.09c-.37-1-.74-2-1.12-2.91C344.5,193.34,336,175.84,322,161c0,0,18.39,15.92,29.83,46.52,2-7.24,2.91-15.92,1.24-23.07-2.52-10.83-11.81-19.07-21.38-24a70.64,70.64,0,0,0-20.33-6.26c4.56,4.41,7.71,9,8.19,15.64s.11,12.81,2.36,19.08c3,8.3,9.38,14.32,17.47,17.56.44.18,5.5,1.92,8.87,2.73a53.73,53.73,0,0,1,2.11,5.54,9.51,9.51,0,0,1-.61,6.25c-2.86,2.45-13.5-4.16-19-6.19-5.34-2-17-5.4-26.59-4.33-11.63,1.3-18.34,5.5-18.34,5.5s.14,7.92.68,10.22c16-7.6,38.78-10.13,53.27-1.59,19.34,11.4,21.6,20.73,45.45,6.08-22.9-1.32-25.92-4-25.54-8.34.41-4.59,2-10.39,2.19-12"/><path class="cls-5" d="M312.11,232.33c18-2,34.08,22.46,42.94,29.56,16.14,12.93,33.87,6,51.1-9.12,8-7,9.54-7.21,15.62-10.36-12.34,3.26-15.15,6.28-25.68,12.62-13,7.83-24.57,7.07-34.68,1.6-9.53-5.17-27-30.9-49.3-24.3"/><path class="cls-6" d="M411.39,164a77.21,77.21,0,0,0-12.16-8.71,71.07,71.07,0,0,1,9.64,7.07,70.23,70.23,0,0,1,6.69,99.08c-11.74,13.44-28.76,21.9-50.9,23.4-15.87,1.07-40.72-5.1-53.59-16.34A70.26,70.26,0,0,1,313,161.13,78.48,78.48,0,0,0,302.1,171.4a77.46,77.46,0,0,0,7.38,109.29,84.4,84.4,0,0,0,14.63,10c10.8,6,26.27,9.91,41.54,8.86s27.23-5.33,40-14.36a75.22,75.22,0,0,0,13.16-11.9A77.46,77.46,0,0,0,411.39,164"/></svg>